Patient4_TMGait_0pt4_01_left_05_EMG.mot
version=1
nRows=36
nColumns=33
inDegrees=no
endheader
time	1LAddLong	2LGlutMax	3LGlutMed	4LIliopsoas	5LSemiMemb	6LBicFemLong	7LRecFem	8LVastMed	9LVastLat	10LGasMed	11LTibAnt	12lTibPost	13LPeroneusLong	14LSol	15LExtDigLong	16LFlexDigLong	17RAddLong	18RGlutMax	19RGlutMed	20RIliopsoas	21RSemiMemb	22RBicFemLong	23RRecFem	24RVastMed	25RVastLat	26RGasMed	27RTibAnt	28RTibPost	29RPeroneusLong	30RSol	31RExtDigLong	32RFlexDigLong
6.698	-0.002136	0.017242	0.02533	0.001526	-0.017242	0.068207	0.029449	0.002441	0.19531	-0.03067	0.11078	0.008392	0.009918	-0.027466	0.23239	-0.004425	-0.01358	-0.27222	0.46097	-0.12985	0.065765	0.13245	0.14847	0.088196	-0.020752	-0.004425	0.081024	0.001678	0.2092	0.37842	-0.000763	-0.00473
6.699	-0.005493	-0.02533	0.02182	-0.001221	-0.036469	0.07431	0.042725	0.00412	0.18448	-0.048981	0.17654	-0.004425	0.036011	-0.042114	0.61554	0.000305	-0.008392	-0.37552	-0.10193	-0.067902	0.080566	0.067139	0.028076	0.16998	0.007629	-0.004425	-0.10437	0.001831	-0.15717	0.22614	0.007935	-0.011444
6.7	0.007935	-0.01236	0.031281	0.011749	-0.044098	0.054779	0.03006	0.004425	0.17532	-0.074158	0.15366	0.007782	0.10056	-0.009003	-0.57266	-0.004272	0.005341	-0.2832	0.58823	-0.060577	0.047607	0.004272	0.09903	0.16388	0.054474	-0.002441	-0.037842	-0.000916	0.28198	0.19836	-0.000305	-0.011902
6.701	0.010529	-0.029755	0.014343	0.001984	-0.042419	-0.010376	0.039825	0.00351	0.1535	-0.034027	0.16785	0.000153	0.001068	-0.045776	-0.18616	0.001678	0.021057	-0.22766	0.26276	0.016022	0.002594	-0.013885	0.23117	0.049744	0.22476	-0.001831	-0.030212	-0.002289	0.75653	0.11383	-0.00351	-0.006409
6.702	0.010376	-0.051727	0.006409	-0.00061	0.02182	-0.034332	0.043793	0.002594	0.16174	-0.037689	-0.17441	-0.002289	-0.003967	-0.035095	-0.15289	-0.00412	0.053864	-0.27313	-0.3804	0.090027	-0.002136	-0.0354	0.22858	-0.1445	0.30563	-0.010681	-0.012207	0.000916	0.57587	0.071716	-0.001831	-0.001068
6.703	0.01358	-0.02594	0.01236	0.001831	0.02533	-0.016785	0.048218	-0.001068	0.15335	-0.043335	-0.22232	-0.001526	0.078735	-0.04837	-0.097351	-0.004425	0.048981	-0.25925	-0.066071	0.11414	0.015411	-0.035858	0.18845	-0.24643	0.28183	-0.016632	-0.003357	-0.004425	-0.39429	0.098419	-0.002899	-0.001526
6.704	0.007477	0.011902	-0.01236	0.010681	-0.010071	0.010071	0.065613	-0.04425	0.13962	-0.037231	-0.21973	0.006409	0.049133	-0.071411	0.071411	-0.006104	0.032196	-0.18784	0.5513	0.061798	0.018921	-0.006866	0.097961	-0.35812	0.18585	-0.02243	0.079041	-0.000305	-0.27054	0.096588	-0.00351	-0.012665
6.705	0.01236	-0.024261	-0.013428	0.001831	0.001984	0.001373	0.044403	-0.040741	0.14053	-0.032806	-0.11063	0.003662	-0.05249	-0.049438	0.28564	-0.010376	-0.017395	-0.060577	-0.030975	0.010071	-0.063171	0.15991	-0.17548	-0.20615	0.28519	-0.02121	0.066833	-0.004425	-0.77835	0.053406	0.000153	-0.013428
6.706	0.011444	-0.015564	-0.028839	-0.005798	0.00351	0.011292	0.061493	-0.003052	0.12726	-0.032349	-0.052643	-0.001984	-0.046234	-0.057068	0.19104	0.006256	0.011902	-0.096893	-0.38406	0.016632	0.012817	0.15564	-0.20798	-0.12161	0.20706	-0.003052	0.000916	-0.00061	-0.32577	0.022278	-0.004272	-0.012512
6.707	0.014343	-0.044403	-0.028839	0.014191	0.002899	0.01297	0.064697	0.00946	0.11688	-0.045013	-0.018616	0.000763	-0.027008	-0.037079	0.094452	0.002594	0.024414	-0.058594	-0.36301	0.039978	-0.026245	0.10483	-0.077667	0.005646	0.039215	-0.010681	-0.10071	-0.002899	-0.090942	-0.024567	-0.002136	-0.014954
6.708	0.012817	-0.055695	-0.044861	0.006256	0.000305	0.019684	0.066071	0.00824	0.11444	-0.066223	0.030365	0.005646	0.013733	-0.007477	-0.12375	0.002594	0.003967	-0.048828	-0.49255	0.053558	-0.054169	0.11169	-0.22751	0.11459	-0.33081	-0.014954	-0.18738	0.002747	0.11215	-0.020447	-0.001526	-0.02182
6.709	0.009918	-0.04303	-0.045166	0.019836	-0.012665	0.043488	0.073853	0.009613	0.1088	-0.041199	0.035248	-0.002136	-0.000916	0.012054	-0.20599	-0.002136	-0.048218	0.033264	0.085602	0.018616	-0.03006	0.071106	-0.29083	0.21652	-0.30411	-0.019989	0.045624	0.001678	0.20981	-0.070343	0	-0.018616
6.71	0.006409	-0.069427	-0.030975	-0.001831	-0.019684	0.015106	0.075836	0.002136	0.10925	-0.036316	0.018463	-0.016937	-0.012665	-0.035095	-0.23666	0.001984	-0.015564	0.028687	1.3939	-0.066528	0.17532	0.039825	0.074463	0.2449	-0.19119	-0.019836	0.089111	-0.000458	0.22598	-0.069122	0.000153	-0.023804
6.711	0.015869	-0.053406	-0.042725	-0.009613	-0.026245	0.009003	0.069733	0.00473	0.11658	-0.029907	-0.019073	-0.014191	-0.023804	-0.043793	-0.20294	-0.007324	0.030823	-0.17075	0.86578	-0.016937	0.18646	0.039825	0.21973	-0.022583	-0.20126	-0.017548	0.29221	0.001678	0.09613	-0.14648	-0.000916	-0.021667
6.712	0.018158	-0.062561	-0.057983	-0.00412	-0.015106	0.031738	0.072632	0.006714	0.103	-0.045471	0.000305	-0.010529	-0.004883	-0.12466	-0.20706	-0.007477	0.043793	-0.17731	0.002289	0.037537	0.030518	-0.014343	0.016174	-0.077057	-0.1889	-0.017548	0.47928	0.000153	-0.19165	-0.17792	-0.007324	-0.010223
6.713	0.013733	-0.068054	-0.085754	-0.011292	0.003052	0.03006	0.10117	0.007477	0.09964	-0.041199	0.029602	0.018311	0.004272	-0.098267	-0.063782	-0.00412	0.086517	-0.10498	-0.11948	-0.003815	0.036163	-0.1413	-0.045776	-0.18295	-0.10529	-0.00061	0.087738	0.002136	-0.28473	-0.24216	0.000305	-0.00061
6.714	0.015564	-0.08316	-0.05661	0.005646	0.001984	0.025024	0.077362	0.005188	0.095825	-0.02655	0.075226	-0.017548	-0.012207	-0.11047	-0.041656	0.007629	0.13916	-0.057068	0.68756	-0.055084	0.093536	-0.25635	-0.0177	-0.25269	-0.057831	0.006256	-0.29434	-0.00473	-0.21133	-0.32669	-0.002289	-0.001221
6.715	0.014648	-0.050964	-0.048523	-0.005798	0.00351	0.006256	0.083466	0.007629	0.098572	-0.022888	-0.009613	-0.009308	-0.04837	-0.10834	-0.013885	-0.005188	0.11658	-0.085297	-0.022888	-0.035858	0.036469	-0.2565	0.012207	-0.31982	-0.054321	-0.005341	-0.40466	-0.000763	-0.094299	-0.28366	-0.002289	0.002594
6.716	0.024872	-0.034332	0.006104	0.01297	-0.006409	-0.004578	0.088806	0.005341	0.090485	-0.036926	-0.045624	-0.005035	-0.048065	-0.16327	0.014954	-0.002594	0.033417	-0.11963	0.22354	-0.047455	-0.29663	-0.027161	-0.079956	-0.12375	-0.016174	-0.00412	-0.12726	0.004272	-0.028534	-0.17212	0.003967	-0.005646
6.717	0.011444	-0.069885	-0.035858	0.000916	-0.007935	0.003815	0.075226	0.00885	0.098114	-0.054169	-0.003967	-0.020905	-0.014648	-0.17502	0.070801	0.001221	-0.016479	-0.084381	0.14938	-0.036469	-0.25085	0.080566	-0.032043	0.12833	0.069427	-0.00061	0.27145	0.00061	-0.16892	-0.18433	-0.00061	-0.012512
6.718	0.020447	-0.041046	-0.10239	0.002899	-0.019379	0.034027	0.070801	0.006714	0.084229	-0.054626	-0.001678	-0.012054	0.010071	-0.14526	0.077515	-0.009918	-0.005188	-0.093536	-0.24719	-0.035858	0.11887	0.21194	0.051117	0.12253	0.079041	-0.001984	0.36438	-0.000763	-0.098572	-0.066223	-0.002136	-0.009003
6.719	0.016174	-0.046844	-0.098877	0.000916	-0.035095	0.055542	0.071716	0.00351	0.079041	-0.043488	0.00351	-0.020142	0.015259	-0.11749	0.092163	-0.002899	-0.016327	-0.10147	-0.13367	-0.071259	0.11353	0.26459	0.020294	0.066986	0.072479	0.003357	-0.049744	0.001068	0.060272	-0.032959	-0.001984	-0.00946
6.72	0.001831	-0.071716	-0.009613	0.01297	-0.036469	0.039673	0.067291	0.010223	0.048981	-0.044861	0.003967	-0.00946	-0.029144	-0.12604	0.07782	-0.009003	-0.062561	-0.14526	-0.052948	-0.030518	0.1387	0.14847	0.023956	0.05661	0.10773	-0.001526	0.053101	-0.006714	0.025787	0.027618	-0.002594	-0.013123
6.721	0.01297	-0.09491	-0.009613	0.015564	-0.028839	-0.007935	0.047302	0.009918	0.039063	-0.040131	0.010376	-0.004578	-0.015411	-0.10757	0.07782	-0.015564	-0.11841	-0.17929	-0.31326	0.10971	0.28748	0.15854	-0.023651	0.032959	0.12726	-0.002899	0.15045	0.000153	-0.044861	0.10208	-0.007172	-0.021667
6.722	0.004883	-0.065613	-0.006714	-0.00351	0.005188	-0.032043	0.010681	0.004425	0.034637	-0.032959	0.012512	-0.002747	-0.026398	-0.094604	0.06485	0	-0.091553	-0.12833	-0.47394	0.16739	0.058136	0.1532	-0.046844	-0.053253	0.07309	-0.008087	0.066681	-0.000305	-0.17303	0.088501	-0.002289	-0.020905
6.723	0.017548	-0.017853	-0.011597	0.000153	0.01297	-0.010681	0.033722	0.013123	0.05249	-0.042419	0.012512	-0.007477	-0.02182	-0.11124	0.055695	-0.000153	-0.06073	-0.061798	-0.077667	0.18265	0.12405	0.016327	0.049591	-0.031738	0.29846	-0.012207	-0.026398	-0.003052	-0.15305	0.12924	0.000305	-0.018005
6.724	0.019684	-0.016632	-0.021667	-0.013428	0	0.001221	0.033875	0.016632	0.0383	-0.040588	0.015411	-0.014343	-0.042725	-0.11398	0.047455	-0.008087	-0.012054	-0.055542	-0.48233	0.1886	0.11292	-0.032349	0.13168	-0.15945	0.38269	-0.007324	-0.051422	-0.000305	-0.074921	0.19089	-0.006104	-0.018158
6.725	0.015869	-0.059357	-0.019379	0.004883	-0.001678	0.032196	0.045013	0.013733	0.032806	-0.054016	0.014801	-0.015869	-0.055847	-0.12466	0.037079	-0.007782	0.005188	0.011902	-0.87845	0.094299	-0.001221	-0.026703	0.21011	-0.1471	0.26871	-0.011139	0.009155	-0.005341	-0.15137	0.21042	-0.000916	-0.017395
6.726	0.015411	-0.068359	0.005035	0.004425	0.01297	0.030975	0.062408	0.016327	0.020142	-0.056763	0.015869	0.007629	-0.043335	-0.072937	0.027924	-0.01236	-0.043335	0.048828	-0.71549	-0.014648	-0.036316	-0.068359	0.17929	-0.050201	0.20432	-0.006561	0.005951	-0.004883	-0.092316	0.11047	0.000153	-0.012207
6.727	0.006561	-0.0737	-0.041809	0.012054	0.013275	0.045624	0.046082	0.016937	0.02533	-0.047607	0.004883	-0.018921	-0.045929	-0.085602	0.014801	-0.009308	-0.038757	0.027924	-0.25864	-0.046539	-0.032806	0.017395	-0.070953	-0.050659	0.063477	-0.004425	0.036011	-0.002441	0.007629	0.031891	-0.001678	-0.011597
6.728	0.012817	-0.067139	-0.00824	-0.005188	0.007019	0.030212	0.018158	0.023041	0.0177	-0.036316	-0.089569	-0.010223	-0.036011	-0.10483	0.017395	-0.010223	0.001984	0.063171	0.75287	-0.046387	0.10925	-0.049744	0.11551	-0.032654	0.050201	-0.010834	0.033722	-0.003204	0.051575	-0.019836	0.001984	-0.00885
6.729	0.01236	-0.039063	0.081635	0.006714	-0.034332	0.011597	0.001373	0.014954	0.032959	-0.041199	-0.10193	-0.010529	-0.028381	-0.097198	0.027313	-0.003662	0.016174	0.030975	-0.43533	0.036774	0.12909	-0.078888	0.64621	0.12711	-0.29816	-0.007935	0.013885	-0.003662	0.17014	0.016937	0.002594	-0.015411
6.73	0.007172	-0.045624	0.028839	0.006866	-0.044403	-0.014343	-0.02243	0.01358	0.041809	-0.048523	-0.058136	-0.010681	-0.019073	-0.093231	0.045929	0.002136	0.023956	-0.053406	-0.72952	0.072937	0.067749	0.029602	0.75378	0.008545	-0.68344	-0.010834	0.050812	-0.003052	0.21164	0.015411	-0.000305	-0.006714
6.731	0.014191	-0.079651	0.028381	0.009003	-0.00946	-0.001678	0.009613	0.006866	0.033112	-0.055695	0.054321	-0.001984	-0.027924	-0.092773	0.043335	-0.004272	-0.024109	0.046692	-0.14114	-0.001678	0.077515	0.10696	0.35202	0.011749	-0.78903	0.001526	0.074615	-0.006866	0.11429	0.016327	-0.005798	-0.001373
6.732	0.016479	-0.087891	-0.041656	0.005188	-0.014038	0.011597	0.018921	0.012665	0.024567	-0.059967	0.18921	-0.012665	-0.047302	-0.080566	0.00473	-0.01236	-0.028381	0.046539	0.69138	-0.074005	0.12558	0.15595	-0.13748	0.050507	-0.42938	-0.016785	0.11627	-0.005646	0.098419	0.027008	-0.005951	0.002594
6.733	0.009155	-0.059814	-0.075836	0.012665	0.028992	0.011749	0.012817	0.018005	0.025177	-0.06012	0.11124	-0.014191	-0.032806	-0.066071	0.021057	-0.019531	-0.002441	-0.014191	0.23911	-0.015869	0.080414	0.15152	-0.48157	-0.008087	-0.057831	-0.018311	0.061951	-0.00412	0.0737	0.043945	-0.003357	-0.003357
